<?xml version="1.0" encoding="UTF-8" standalone="no"?>
<!DOCTYPE svg PUBLIC "-//W3C//DTD SVG 1.1//EN"
 "http://www.w3.org/Graphics/SVG/1.1/DTD/svg11.dtd">
<!-- Generated by graphviz version 2.47.3 (20210619.2315)
 -->
<!-- Title: snakemake_dag Pages: 1 -->
<svg width="2756pt" height="1233pt"
 viewBox="0.00 0.00 2755.50 1233.00" xmlns="http://www.w3.org/2000/svg" xmlns:xlink="http://www.w3.org/1999/xlink">
<g id="graph0" class="graph" transform="scale(1 1) rotate(0) translate(4 1229)">
<title>snakemake_dag</title>
<polygon fill="white" stroke="transparent" points="-4,4 -4,-1229 2751.5,-1229 2751.5,4 -4,4"/>
<!-- 0 -->
<g id="node1" class="node">
<title>0</title>
<path fill="none" stroke="#569ad8" stroke-width="2" d="M1692,-36C1692,-36 1662,-36 1662,-36 1656,-36 1650,-30 1650,-24 1650,-24 1650,-12 1650,-12 1650,-6 1656,0 1662,0 1662,0 1692,0 1692,0 1698,0 1704,-6 1704,-12 1704,-12 1704,-24 1704,-24 1704,-30 1698,-36 1692,-36"/>
<text text-anchor="middle" x="1677" y="-15.5" font-family="sans" font-size="10.00">all</text>
</g>
<!-- 1 -->
<g id="node2" class="node">
<title>1</title>
<path fill="none" stroke="#56d86b" stroke-width="2" d="M892,-121.5C892,-121.5 740,-121.5 740,-121.5 734,-121.5 728,-115.5 728,-109.5 728,-109.5 728,-97.5 728,-97.5 728,-91.5 734,-85.5 740,-85.5 740,-85.5 892,-85.5 892,-85.5 898,-85.5 904,-91.5 904,-97.5 904,-97.5 904,-109.5 904,-109.5 904,-115.5 898,-121.5 892,-121.5"/>
<text text-anchor="middle" x="816" y="-101" font-family="sans" font-size="10.00">wgs_somatic_cnv_sv_cnvkit2vcf</text>
</g>
<!-- 1&#45;&gt;0 -->
<g id="edge1" class="edge">
<title>1&#45;&gt;0</title>
<path fill="none" stroke="grey" stroke-width="2" d="M901.35,-85.45C928.34,-80.52 958.34,-75.53 986,-72 1234.4,-40.27 1535.65,-25.1 1639.61,-20.54"/>
<polygon fill="grey" stroke="grey" stroke-width="2" points="1640.06,-24.02 1649.9,-20.09 1639.76,-17.03 1640.06,-24.02"/>
</g>
<!-- 2 -->
<g id="node3" class="node">
<title>2</title>
<path fill="none" stroke="#56d8d0" stroke-width="2" d="M776.5,-351C776.5,-351 645.5,-351 645.5,-351 639.5,-351 633.5,-345 633.5,-339 633.5,-339 633.5,-327 633.5,-327 633.5,-321 639.5,-315 645.5,-315 645.5,-315 776.5,-315 776.5,-315 782.5,-315 788.5,-321 788.5,-327 788.5,-327 788.5,-339 788.5,-339 788.5,-345 782.5,-351 776.5,-351"/>
<text text-anchor="middle" x="711" y="-330.5" font-family="sans" font-size="10.00">wgs_somatic_cnv_sv_cnvkit</text>
</g>
<!-- 2&#45;&gt;1 -->
<g id="edge21" class="edge">
<title>2&#45;&gt;1</title>
<path fill="none" stroke="grey" stroke-width="2" d="M700.54,-314.56C683.31,-283.33 653.56,-216.86 682,-171 694.93,-150.14 716.58,-135.62 738.74,-125.6"/>
<polygon fill="grey" stroke="grey" stroke-width="2" points="740.4,-128.7 748.25,-121.58 737.67,-122.25 740.4,-128.7"/>
</g>
<!-- 3 -->
<g id="node4" class="node">
<title>3</title>
<path fill="none" stroke="#d8a456" stroke-width="2" d="M1950,-423C1950,-423 1828,-423 1828,-423 1822,-423 1816,-417 1816,-411 1816,-411 1816,-399 1816,-399 1816,-393 1822,-387 1828,-387 1828,-387 1950,-387 1950,-387 1956,-387 1962,-393 1962,-399 1962,-399 1962,-411 1962,-411 1962,-417 1956,-423 1950,-423"/>
<text text-anchor="middle" x="1889" y="-402.5" font-family="sans" font-size="10.00">wgs_std_gather_bam_files</text>
</g>
<!-- 3&#45;&gt;0 -->
<g id="edge12" class="edge">
<title>3&#45;&gt;0</title>
<path fill="none" stroke="grey" stroke-width="2" d="M1920.49,-386.8C1935.3,-377.6 1952.43,-365.22 1965,-351 2000.94,-310.33 1982.61,-280.34 2022,-243 2049.71,-216.73 2079.42,-239.16 2100,-207 2119.79,-176.06 2108.08,-97.52 2081,-72 2028.63,-22.64 1804.28,-18.26 1714.42,-18.54"/>
<polygon fill="grey" stroke="grey" stroke-width="2" points="1714.13,-15.05 1704.15,-18.6 1714.17,-22.05 1714.13,-15.05"/>
</g>
<!-- 3&#45;&gt;2 -->
<g id="edge22" class="edge">
<title>3&#45;&gt;2</title>
<path fill="none" stroke="grey" stroke-width="2" d="M1815.76,-402.45C1644.2,-398.36 1203.02,-385.13 836,-351 823.87,-349.87 811.11,-348.43 798.56,-346.87"/>
<polygon fill="grey" stroke="grey" stroke-width="2" points="798.93,-343.39 788.56,-345.59 798.04,-350.33 798.93,-343.39"/>
</g>
<!-- 25 -->
<g id="node26" class="node">
<title>25</title>
<path fill="none" stroke="#afd856" stroke-width="2" d="M2191.5,-351C2191.5,-351 2048.5,-351 2048.5,-351 2042.5,-351 2036.5,-345 2036.5,-339 2036.5,-339 2036.5,-327 2036.5,-327 2036.5,-321 2042.5,-315 2048.5,-315 2048.5,-315 2191.5,-315 2191.5,-315 2197.5,-315 2203.5,-321 2203.5,-327 2203.5,-327 2203.5,-339 2203.5,-339 2203.5,-345 2197.5,-351 2191.5,-351"/>
<text text-anchor="middle" x="2120" y="-330.5" font-family="sans" font-size="10.00">wgs_somatic_cnv_sv_cnvnator</text>
</g>
<!-- 3&#45;&gt;25 -->
<g id="edge48" class="edge">
<title>3&#45;&gt;25</title>
<path fill="none" stroke="grey" stroke-width="2" d="M1945.21,-386.97C1977.91,-377.06 2019.3,-364.51 2053.6,-354.12"/>
<polygon fill="grey" stroke="grey" stroke-width="2" points="2054.98,-357.36 2063.53,-351.11 2052.95,-350.66 2054.98,-357.36"/>
</g>
<!-- 28 -->
<g id="node29" class="node">
<title>28</title>
<path fill="none" stroke="#d8ac56" stroke-width="2" d="M954.5,-279C954.5,-279 803.5,-279 803.5,-279 797.5,-279 791.5,-273 791.5,-267 791.5,-267 791.5,-255 791.5,-255 791.5,-249 797.5,-243 803.5,-243 803.5,-243 954.5,-243 954.5,-243 960.5,-243 966.5,-249 966.5,-255 966.5,-255 966.5,-267 966.5,-267 966.5,-273 960.5,-279 954.5,-279"/>
<text text-anchor="middle" x="879" y="-258.5" font-family="sans" font-size="10.00">wgs_somatic_cnv_sv_manta_TN</text>
</g>
<!-- 3&#45;&gt;28 -->
<g id="edge51" class="edge">
<title>3&#45;&gt;28</title>
<path fill="none" stroke="grey" stroke-width="2" d="M1815.84,-398.08C1731.44,-390.48 1588.78,-375.32 1468,-351 1409.65,-339.25 1397.41,-326.44 1339,-315 1215.12,-290.73 1070.14,-276.3 976.55,-268.76"/>
<polygon fill="grey" stroke="grey" stroke-width="2" points="976.78,-265.27 966.53,-267.96 976.22,-272.24 976.78,-265.27"/>
</g>
<!-- 29 -->
<g id="node30" class="node">
<title>29</title>
<path fill="none" stroke="#d89556" stroke-width="2" d="M1024.5,-351C1024.5,-351 857.5,-351 857.5,-351 851.5,-351 845.5,-345 845.5,-339 845.5,-339 845.5,-327 845.5,-327 845.5,-321 851.5,-315 857.5,-315 857.5,-315 1024.5,-315 1024.5,-315 1030.5,-315 1036.5,-321 1036.5,-327 1036.5,-327 1036.5,-339 1036.5,-339 1036.5,-345 1030.5,-351 1024.5,-351"/>
<text text-anchor="middle" x="941" y="-330.5" font-family="sans" font-size="10.00">wgs_somatic_cnv_sv_config_manta</text>
</g>
<!-- 3&#45;&gt;29 -->
<g id="edge54" class="edge">
<title>3&#45;&gt;29</title>
<path fill="none" stroke="grey" stroke-width="2" d="M1815.88,-399.96C1677.02,-392.08 1365.64,-373.47 1104,-351 1085.5,-349.41 1065.83,-347.53 1046.8,-345.6"/>
<polygon fill="grey" stroke="grey" stroke-width="2" points="1046.92,-342.1 1036.62,-344.56 1046.21,-349.06 1046.92,-342.1"/>
</g>
<!-- 32 -->
<g id="node33" class="node">
<title>32</title>
<path fill="none" stroke="#97d856" stroke-width="2" d="M1284.5,-279C1284.5,-279 1159.5,-279 1159.5,-279 1153.5,-279 1147.5,-273 1147.5,-267 1147.5,-267 1147.5,-255 1147.5,-255 1147.5,-249 1153.5,-243 1159.5,-243 1159.5,-243 1284.5,-243 1284.5,-243 1290.5,-243 1296.5,-249 1296.5,-255 1296.5,-255 1296.5,-267 1296.5,-267 1296.5,-273 1290.5,-279 1284.5,-279"/>
<text text-anchor="middle" x="1222" y="-264" font-family="sans" font-size="10.00">wgs_somatic_snp_mutect2</text>
<text text-anchor="middle" x="1222" y="-253" font-family="sans" font-size="10.00">locus: chr1</text>
</g>
<!-- 3&#45;&gt;32 -->
<g id="edge61" class="edge">
<title>3&#45;&gt;32</title>
<path fill="none" stroke="grey" stroke-width="2" d="M1815.81,-389.45C1763.46,-378.97 1691.34,-364.37 1628,-351 1516.73,-327.51 1388.6,-299.21 1306.53,-280.93"/>
<polygon fill="grey" stroke="grey" stroke-width="2" points="1307.28,-277.51 1296.75,-278.75 1305.75,-284.34 1307.28,-277.51"/>
</g>
<!-- 39 -->
<g id="node40" class="node">
<title>39</title>
<path fill="none" stroke="#d88d56" stroke-width="2" d="M1844.5,-351C1844.5,-351 1649.5,-351 1649.5,-351 1643.5,-351 1637.5,-345 1637.5,-339 1637.5,-339 1637.5,-327 1637.5,-327 1637.5,-321 1643.5,-315 1649.5,-315 1649.5,-315 1844.5,-315 1844.5,-315 1850.5,-315 1856.5,-321 1856.5,-327 1856.5,-327 1856.5,-339 1856.5,-339 1856.5,-345 1850.5,-351 1844.5,-351"/>
<text text-anchor="middle" x="1747" y="-336" font-family="sans" font-size="10.00">wgs_somatic_snp_get_pileup_summaries</text>
<text text-anchor="middle" x="1747" y="-325" font-family="sans" font-size="10.00">locus: chr1</text>
</g>
<!-- 3&#45;&gt;39 -->
<g id="edge71" class="edge">
<title>3&#45;&gt;39</title>
<path fill="none" stroke="grey" stroke-width="2" d="M1854.26,-386.88C1835.18,-377.47 1811.32,-365.71 1790.95,-355.67"/>
<polygon fill="grey" stroke="grey" stroke-width="2" points="1792.39,-352.47 1781.87,-351.19 1789.29,-358.75 1792.39,-352.47"/>
</g>
<!-- 45 -->
<g id="node46" class="node">
<title>45</title>
<path fill="none" stroke="#56d8c1" stroke-width="2" d="M2378,-351C2378,-351 2252,-351 2252,-351 2246,-351 2240,-345 2240,-339 2240,-339 2240,-327 2240,-327 2240,-321 2246,-315 2252,-315 2252,-315 2378,-315 2378,-315 2384,-315 2390,-321 2390,-327 2390,-327 2390,-339 2390,-339 2390,-345 2384,-351 2378,-351"/>
<text text-anchor="middle" x="2315" y="-330.5" font-family="sans" font-size="10.00">wgs_somatic_cnv_sv_tiddit</text>
</g>
<!-- 3&#45;&gt;45 -->
<g id="edge77" class="edge">
<title>3&#45;&gt;45</title>
<path fill="none" stroke="grey" stroke-width="2" d="M1962.04,-392.12C2027.71,-381.42 2126.82,-365.23 2213,-351 2218.42,-350.1 2224.01,-349.18 2229.64,-348.25"/>
<polygon fill="grey" stroke="grey" stroke-width="2" points="2230.51,-351.65 2239.8,-346.56 2229.37,-344.74 2230.51,-351.65"/>
</g>
<!-- 48 -->
<g id="node49" class="node">
<title>48</title>
<path fill="none" stroke="#56d8b9" stroke-width="2" d="M603,-351C603,-351 485,-351 485,-351 479,-351 473,-345 473,-339 473,-339 473,-327 473,-327 473,-321 479,-315 485,-315 485,-315 603,-315 603,-315 609,-315 615,-321 615,-327 615,-327 615,-339 615,-339 615,-345 609,-351 603,-351"/>
<text text-anchor="middle" x="544" y="-336" font-family="sans" font-size="10.00">wgs_somatic_snp_vardict</text>
<text text-anchor="middle" x="544" y="-325" font-family="sans" font-size="10.00">locus: chr1:1&#45;15009</text>
</g>
<!-- 3&#45;&gt;48 -->
<g id="edge81" class="edge">
<title>3&#45;&gt;48</title>
<path fill="none" stroke="grey" stroke-width="2" d="M1815.94,-401.65C1570.12,-393.67 780.2,-367.18 625.46,-350.95"/>
<polygon fill="grey" stroke="grey" stroke-width="2" points="625.76,-347.46 615.43,-349.8 624.96,-354.41 625.76,-347.46"/>
</g>
<!-- 53 -->
<g id="node54" class="node">
<title>53</title>
<path fill="none" stroke="#56d8a2" stroke-width="2" d="M1861,-121.5C1861,-121.5 1643,-121.5 1643,-121.5 1637,-121.5 1631,-115.5 1631,-109.5 1631,-109.5 1631,-97.5 1631,-97.5 1631,-91.5 1637,-85.5 1643,-85.5 1643,-85.5 1861,-85.5 1861,-85.5 1867,-85.5 1873,-91.5 1873,-97.5 1873,-97.5 1873,-109.5 1873,-109.5 1873,-115.5 1867,-121.5 1861,-121.5"/>
<text text-anchor="middle" x="1752" y="-101" font-family="sans" font-size="10.00">wgs_std_collect_alignment_summary_metrics</text>
</g>
<!-- 3&#45;&gt;53 -->
<g id="edge85" class="edge">
<title>3&#45;&gt;53</title>
<path fill="none" stroke="grey" stroke-width="2" d="M1892.12,-386.8C1898.61,-345.75 1909.49,-240.29 1865,-171 1852.2,-151.06 1831.12,-136.34 1810.62,-125.89"/>
<polygon fill="grey" stroke="grey" stroke-width="2" points="1812.11,-122.73 1801.58,-121.53 1809.07,-129.03 1812.11,-122.73"/>
</g>
<!-- 54 -->
<g id="node55" class="node">
<title>54</title>
<path fill="none" stroke="#56a2d8" stroke-width="2" d="M2040.5,-121.5C2040.5,-121.5 1903.5,-121.5 1903.5,-121.5 1897.5,-121.5 1891.5,-115.5 1891.5,-109.5 1891.5,-109.5 1891.5,-97.5 1891.5,-97.5 1891.5,-91.5 1897.5,-85.5 1903.5,-85.5 1903.5,-85.5 2040.5,-85.5 2040.5,-85.5 2046.5,-85.5 2052.5,-91.5 2052.5,-97.5 2052.5,-97.5 2052.5,-109.5 2052.5,-109.5 2052.5,-115.5 2046.5,-121.5 2040.5,-121.5"/>
<text text-anchor="middle" x="1972" y="-101" font-family="sans" font-size="10.00">wgs_std_collect_wgs_metrics</text>
</g>
<!-- 3&#45;&gt;54 -->
<g id="edge86" class="edge">
<title>3&#45;&gt;54</title>
<path fill="none" stroke="grey" stroke-width="2" d="M1893.64,-386.84C1896.42,-376.48 1899.98,-363 1903,-351 1923.06,-271.23 1921.41,-249.49 1946,-171 1950.17,-157.69 1955.7,-143.24 1960.58,-131.22"/>
<polygon fill="grey" stroke="grey" stroke-width="2" points="1963.9,-132.35 1964.49,-121.77 1957.43,-129.67 1963.9,-132.35"/>
</g>
<!-- 56 -->
<g id="node57" class="node">
<title>56</title>
<path fill="none" stroke="#59d856" stroke-width="2" d="M2079,-207C2079,-207 1967,-207 1967,-207 1961,-207 1955,-201 1955,-195 1955,-195 1955,-183 1955,-183 1955,-177 1961,-171 1967,-171 1967,-171 2079,-171 2079,-171 2085,-171 2091,-177 2091,-183 2091,-183 2091,-195 2091,-195 2091,-201 2085,-207 2079,-207"/>
<text text-anchor="middle" x="2023" y="-186.5" font-family="sans" font-size="10.00">wgs_std_samtools_stats</text>
</g>
<!-- 3&#45;&gt;56 -->
<g id="edge89" class="edge">
<title>3&#45;&gt;56</title>
<path fill="none" stroke="grey" stroke-width="2" d="M1909.05,-386.8C1919.53,-377.07 1932.01,-364.22 1941,-351 1970.53,-307.56 1964.08,-289.24 1989,-243 1993.93,-233.86 1999.88,-224.2 2005.42,-215.67"/>
<polygon fill="grey" stroke="grey" stroke-width="2" points="2008.38,-217.53 2010.98,-207.26 2002.54,-213.67 2008.38,-217.53"/>
</g>
<!-- 4 -->
<g id="node5" class="node">
<title>4</title>
<path fill="none" stroke="#8fd856" stroke-width="2" d="M2093.5,-495C2093.5,-495 2002.5,-495 2002.5,-495 1996.5,-495 1990.5,-489 1990.5,-483 1990.5,-483 1990.5,-471 1990.5,-471 1990.5,-465 1996.5,-459 2002.5,-459 2002.5,-459 2093.5,-459 2093.5,-459 2099.5,-459 2105.5,-465 2105.5,-471 2105.5,-471 2105.5,-483 2105.5,-483 2105.5,-489 2099.5,-495 2093.5,-495"/>
<text text-anchor="middle" x="2048" y="-474.5" font-family="sans" font-size="10.00">wgs_std_apply_bqsr</text>
</g>
<!-- 4&#45;&gt;3 -->
<g id="edge24" class="edge">
<title>4&#45;&gt;3</title>
<path fill="none" stroke="grey" stroke-width="2" d="M2009.1,-458.88C1987.37,-449.31 1960.1,-437.3 1937.04,-427.15"/>
<polygon fill="grey" stroke="grey" stroke-width="2" points="1938.33,-423.89 1927.77,-423.07 1935.51,-430.3 1938.33,-423.89"/>
</g>
<!-- 5 -->
<g id="node6" class="node">
<title>5</title>
<path fill="none" stroke="#ced856" stroke-width="2" d="M2208.5,-639C2208.5,-639 2089.5,-639 2089.5,-639 2083.5,-639 2077.5,-633 2077.5,-627 2077.5,-627 2077.5,-615 2077.5,-615 2077.5,-609 2083.5,-603 2089.5,-603 2089.5,-603 2208.5,-603 2208.5,-603 2214.5,-603 2220.5,-609 2220.5,-615 2220.5,-615 2220.5,-627 2220.5,-627 2220.5,-633 2214.5,-639 2208.5,-639"/>
<text text-anchor="middle" x="2149" y="-618.5" font-family="sans" font-size="10.00">wgs_std_mark_duplicates</text>
</g>
<!-- 5&#45;&gt;4 -->
<g id="edge25" class="edge">
<title>5&#45;&gt;4</title>
<path fill="none" stroke="grey" stroke-width="2" d="M2109.74,-602.93C2094.21,-594.29 2077.58,-582.35 2067,-567 2054.5,-548.87 2049.98,-524.09 2048.45,-505.28"/>
<polygon fill="grey" stroke="grey" stroke-width="2" points="2051.94,-505.04 2047.87,-495.26 2044.96,-505.45 2051.94,-505.04"/>
</g>
<!-- 11 -->
<g id="node12" class="node">
<title>11</title>
<path fill="none" stroke="#d87556" stroke-width="2" d="M2210,-567C2210,-567 2088,-567 2088,-567 2082,-567 2076,-561 2076,-555 2076,-555 2076,-543 2076,-543 2076,-537 2082,-531 2088,-531 2088,-531 2210,-531 2210,-531 2216,-531 2222,-537 2222,-543 2222,-543 2222,-555 2222,-555 2222,-561 2216,-567 2210,-567"/>
<text text-anchor="middle" x="2149" y="-546.5" font-family="sans" font-size="10.00">wgs_std_base_recalibrator</text>
</g>
<!-- 5&#45;&gt;11 -->
<g id="edge33" class="edge">
<title>5&#45;&gt;11</title>
<path fill="none" stroke="grey" stroke-width="2" d="M2149,-602.7C2149,-594.98 2149,-585.71 2149,-577.11"/>
<polygon fill="grey" stroke="grey" stroke-width="2" points="2152.5,-577.1 2149,-567.1 2145.5,-577.1 2152.5,-577.1"/>
</g>
<!-- 6 -->
<g id="node7" class="node">
<title>6</title>
<path fill="none" stroke="#d8b456" stroke-width="2" d="M2350,-711C2350,-711 2264,-711 2264,-711 2258,-711 2252,-705 2252,-699 2252,-699 2252,-687 2252,-687 2252,-681 2258,-675 2264,-675 2264,-675 2350,-675 2350,-675 2356,-675 2362,-681 2362,-687 2362,-687 2362,-699 2362,-699 2362,-705 2356,-711 2350,-711"/>
<text text-anchor="middle" x="2307" y="-696" font-family="sans" font-size="10.00">wgs_std_split_bam</text>
<text text-anchor="middle" x="2307" y="-685" font-family="sans" font-size="10.00">locus: chr1</text>
</g>
<!-- 6&#45;&gt;5 -->
<g id="edge27" class="edge">
<title>6&#45;&gt;5</title>
<path fill="none" stroke="grey" stroke-width="2" d="M2268.35,-674.88C2246.75,-665.31 2219.65,-653.3 2196.73,-643.15"/>
<polygon fill="grey" stroke="grey" stroke-width="2" points="2198.09,-639.92 2187.53,-639.07 2195.25,-646.32 2198.09,-639.92"/>
</g>
<!-- 7 -->
<g id="node8" class="node">
<title>7</title>
<path fill="none" stroke="#5663d8" stroke-width="2" d="M2465,-855C2465,-855 2407,-855 2407,-855 2401,-855 2395,-849 2395,-843 2395,-843 2395,-831 2395,-831 2395,-825 2401,-819 2407,-819 2407,-819 2465,-819 2465,-819 2471,-819 2477,-825 2477,-831 2477,-831 2477,-843 2477,-843 2477,-849 2471,-855 2465,-855"/>
<text text-anchor="middle" x="2436" y="-834.5" font-family="sans" font-size="10.00">wgs_std_bwa</text>
</g>
<!-- 7&#45;&gt;6 -->
<g id="edge28" class="edge">
<title>7&#45;&gt;6</title>
<path fill="none" stroke="grey" stroke-width="2" d="M2394.94,-825.96C2371.34,-818.1 2343.09,-804.75 2326,-783 2312.31,-765.58 2307.92,-740.53 2306.74,-721.44"/>
<polygon fill="grey" stroke="grey" stroke-width="2" points="2310.23,-721.14 2306.38,-711.27 2303.24,-721.39 2310.23,-721.14"/>
</g>
<!-- 10 -->
<g id="node11" class="node">
<title>10</title>
<path fill="none" stroke="#d88556" stroke-width="2" d="M2439,-783C2439,-783 2347,-783 2347,-783 2341,-783 2335,-777 2335,-771 2335,-771 2335,-759 2335,-759 2335,-753 2341,-747 2347,-747 2347,-747 2439,-747 2439,-747 2445,-747 2451,-753 2451,-759 2451,-759 2451,-771 2451,-771 2451,-777 2445,-783 2439,-783"/>
<text text-anchor="middle" x="2393" y="-762.5" font-family="sans" font-size="10.00">wgs_std_index_bam</text>
</g>
<!-- 7&#45;&gt;10 -->
<g id="edge32" class="edge">
<title>7&#45;&gt;10</title>
<path fill="none" stroke="grey" stroke-width="2" d="M2425.37,-818.7C2420.37,-810.56 2414.31,-800.69 2408.79,-791.7"/>
<polygon fill="grey" stroke="grey" stroke-width="2" points="2411.72,-789.79 2403.51,-783.1 2405.76,-793.46 2411.72,-789.79"/>
</g>
<!-- 52 -->
<g id="node53" class="node">
<title>52</title>
<path fill="none" stroke="#566bd8" stroke-width="2" d="M2655,-639C2655,-639 2497,-639 2497,-639 2491,-639 2485,-633 2485,-627 2485,-627 2485,-615 2485,-615 2485,-609 2491,-603 2497,-603 2497,-603 2655,-603 2655,-603 2661,-603 2667,-609 2667,-615 2667,-615 2667,-627 2667,-627 2667,-633 2661,-639 2655,-639"/>
<text text-anchor="middle" x="2576" y="-618.5" font-family="sans" font-size="10.00">wgs_std_collect_multiple_metrics</text>
</g>
<!-- 7&#45;&gt;52 -->
<g id="edge84" class="edge">
<title>7&#45;&gt;52</title>
<path fill="none" stroke="grey" stroke-width="2" d="M2449.29,-818.54C2456.98,-808.31 2466.73,-795.06 2475,-783 2506.95,-736.45 2541.31,-680.2 2560.59,-648.01"/>
<polygon fill="grey" stroke="grey" stroke-width="2" points="2563.72,-649.6 2565.84,-639.22 2557.71,-646.01 2563.72,-649.6"/>
</g>
<!-- 55 -->
<g id="node56" class="node">
<title>55</title>
<path fill="none" stroke="#c6d856" stroke-width="2" d="M2500,-711C2500,-711 2414,-711 2414,-711 2408,-711 2402,-705 2402,-699 2402,-699 2402,-687 2402,-687 2402,-681 2408,-675 2414,-675 2414,-675 2500,-675 2500,-675 2506,-675 2512,-681 2512,-687 2512,-687 2512,-699 2512,-699 2512,-705 2506,-711 2500,-711"/>
<text text-anchor="middle" x="2457" y="-690.5" font-family="sans" font-size="10.00">wgs_std_mosdepth</text>
</g>
<!-- 7&#45;&gt;55 -->
<g id="edge87" class="edge">
<title>7&#45;&gt;55</title>
<path fill="none" stroke="grey" stroke-width="2" d="M2445.95,-818.98C2451.27,-808.89 2457.27,-795.64 2460,-783 2464.4,-762.63 2463.33,-739.04 2461.34,-721.26"/>
<polygon fill="grey" stroke="grey" stroke-width="2" points="2464.8,-720.76 2460.05,-711.28 2457.86,-721.65 2464.8,-720.76"/>
</g>
<!-- 8 -->
<g id="node9" class="node">
<title>8</title>
<path fill="none" stroke="#61d856" stroke-width="2" d="M2476,-927C2476,-927 2396,-927 2396,-927 2390,-927 2384,-921 2384,-915 2384,-915 2384,-903 2384,-903 2384,-897 2390,-891 2396,-891 2396,-891 2476,-891 2476,-891 2482,-891 2488,-897 2488,-903 2488,-903 2488,-915 2488,-915 2488,-921 2482,-927 2476,-927"/>
<text text-anchor="middle" x="2436" y="-906.5" font-family="sans" font-size="10.00">wgs_std_cutadapt</text>
</g>
<!-- 8&#45;&gt;7 -->
<g id="edge30" class="edge">
<title>8&#45;&gt;7</title>
<path fill="none" stroke="grey" stroke-width="2" d="M2436,-890.7C2436,-882.98 2436,-873.71 2436,-865.11"/>
<polygon fill="grey" stroke="grey" stroke-width="2" points="2439.5,-865.1 2436,-855.1 2432.5,-865.1 2439.5,-865.1"/>
</g>
<!-- 9 -->
<g id="node10" class="node">
<title>9</title>
<path fill="none" stroke="#d86e56" stroke-width="2" d="M2483.5,-1004C2483.5,-1004 2388.5,-1004 2388.5,-1004 2382.5,-1004 2376.5,-998 2376.5,-992 2376.5,-992 2376.5,-975 2376.5,-975 2376.5,-969 2382.5,-963 2388.5,-963 2388.5,-963 2483.5,-963 2483.5,-963 2489.5,-963 2495.5,-969 2495.5,-975 2495.5,-975 2495.5,-992 2495.5,-992 2495.5,-998 2489.5,-1004 2483.5,-1004"/>
<text text-anchor="middle" x="2436" y="-992" font-family="sans" font-size="10.00">wgs_std_combine_fq</text>
<text text-anchor="middle" x="2436" y="-981" font-family="sans" font-size="10.00">sample: NA12878</text>
<text text-anchor="middle" x="2436" y="-970" font-family="sans" font-size="10.00">unit: T</text>
</g>
<!-- 9&#45;&gt;8 -->
<g id="edge31" class="edge">
<title>9&#45;&gt;8</title>
<path fill="none" stroke="grey" stroke-width="2" d="M2436,-962.69C2436,-954.91 2436,-945.84 2436,-937.45"/>
<polygon fill="grey" stroke="grey" stroke-width="2" points="2439.5,-937.32 2436,-927.32 2432.5,-937.32 2439.5,-937.32"/>
</g>
<!-- 10&#45;&gt;6 -->
<g id="edge29" class="edge">
<title>10&#45;&gt;6</title>
<path fill="none" stroke="grey" stroke-width="2" d="M2371.74,-746.7C2360.91,-737.88 2347.58,-727.03 2335.84,-717.47"/>
<polygon fill="grey" stroke="grey" stroke-width="2" points="2337.98,-714.7 2328.01,-711.1 2333.56,-720.13 2337.98,-714.7"/>
</g>
<!-- 10&#45;&gt;55 -->
<g id="edge88" class="edge">
<title>10&#45;&gt;55</title>
<path fill="none" stroke="grey" stroke-width="2" d="M2408.82,-746.7C2416.57,-738.22 2426.04,-727.86 2434.52,-718.58"/>
<polygon fill="grey" stroke="grey" stroke-width="2" points="2437.2,-720.85 2441.36,-711.1 2432.03,-716.12 2437.2,-720.85"/>
</g>
<!-- 11&#45;&gt;4 -->
<g id="edge26" class="edge">
<title>11&#45;&gt;4</title>
<path fill="none" stroke="grey" stroke-width="2" d="M2124.29,-530.88C2111.33,-521.89 2095.27,-510.76 2081.23,-501.03"/>
<polygon fill="grey" stroke="grey" stroke-width="2" points="2083.02,-498.01 2072.8,-495.19 2079.03,-503.76 2083.02,-498.01"/>
</g>
<!-- 12 -->
<g id="node13" class="node">
<title>12</title>
<path fill="none" stroke="#b6d856" stroke-width="2" d="M777,-423C777,-423 595,-423 595,-423 589,-423 583,-417 583,-411 583,-411 583,-399 583,-399 583,-393 589,-387 595,-387 595,-387 777,-387 777,-387 783,-387 789,-393 789,-399 789,-399 789,-411 789,-411 789,-417 783,-423 777,-423"/>
<text text-anchor="middle" x="686" y="-402.5" font-family="sans" font-size="10.00">wgs_somatic_pon_cnvkit_somatic_pon</text>
</g>
<!-- 12&#45;&gt;2 -->
<g id="edge23" class="edge">
<title>12&#45;&gt;2</title>
<path fill="none" stroke="grey" stroke-width="2" d="M692.18,-386.7C695,-378.81 698.39,-369.3 701.52,-360.55"/>
<polygon fill="grey" stroke="grey" stroke-width="2" points="704.82,-361.7 704.89,-351.1 698.23,-359.34 704.82,-361.7"/>
</g>
<!-- 13 -->
<g id="node14" class="node">
<title>13</title>
<path fill="none" stroke="#d8a456" stroke-width="2" d="M839,-639C839,-639 717,-639 717,-639 711,-639 705,-633 705,-627 705,-627 705,-615 705,-615 705,-609 711,-603 717,-603 717,-603 839,-603 839,-603 845,-603 851,-609 851,-615 851,-615 851,-627 851,-627 851,-633 845,-639 839,-639"/>
<text text-anchor="middle" x="778" y="-618.5" font-family="sans" font-size="10.00">wgs_std_gather_bam_files</text>
</g>
<!-- 13&#45;&gt;0 -->
<g id="edge18" class="edge">
<title>13&#45;&gt;0</title>
<path fill="none" stroke="grey" stroke-width="2" d="M704.67,-611.43C668.05,-604.26 624.71,-591.1 592,-567 407.14,-430.79 279.4,-232.11 444,-72 487.92,-29.28 1438.09,-20.59 1639.64,-19.22"/>
<polygon fill="grey" stroke="grey" stroke-width="2" points="1639.75,-22.72 1649.73,-19.15 1639.71,-15.72 1639.75,-22.72"/>
</g>
<!-- 13&#45;&gt;12 -->
<g id="edge34" class="edge">
<title>13&#45;&gt;12</title>
<path fill="none" stroke="grey" stroke-width="2" d="M780.25,-602.61C783.41,-571.47 786.04,-505.14 759,-459 751.93,-446.94 740.92,-436.85 729.57,-428.82"/>
<polygon fill="grey" stroke="grey" stroke-width="2" points="731.16,-425.67 720.89,-423.08 727.3,-431.51 731.16,-425.67"/>
</g>
<!-- 13&#45;&gt;28 -->
<g id="edge52" class="edge">
<title>13&#45;&gt;28</title>
<path fill="none" stroke="grey" stroke-width="2" d="M785.89,-602.93C797.29,-576.67 817,-524.53 817,-478 817,-478 817,-478 817,-404 817,-363.55 818.55,-351.49 836,-315 840.8,-304.95 847.87,-295.14 854.9,-286.75"/>
<polygon fill="grey" stroke="grey" stroke-width="2" points="857.58,-288.99 861.55,-279.17 852.32,-284.38 857.58,-288.99"/>
</g>
<!-- 13&#45;&gt;29 -->
<g id="edge55" class="edge">
<title>13&#45;&gt;29</title>
<path fill="none" stroke="grey" stroke-width="2" d="M798.33,-602.78C808.99,-593.04 821.71,-580.2 831,-567 879.13,-498.61 915.62,-405.86 931.81,-360.79"/>
<polygon fill="grey" stroke="grey" stroke-width="2" points="935.18,-361.76 935.22,-351.16 928.58,-359.42 935.18,-361.76"/>
</g>
<!-- 13&#45;&gt;32 -->
<g id="edge62" class="edge">
<title>13&#45;&gt;32</title>
<path fill="none" stroke="grey" stroke-width="2" d="M851.16,-614.96C936.2,-604.67 1065,-573.34 1065,-478 1065,-478 1065,-478 1065,-404 1065,-360.81 1073.6,-345.68 1104,-315 1117.47,-301.41 1135.05,-290.99 1152.51,-283.14"/>
<polygon fill="grey" stroke="grey" stroke-width="2" points="1154.33,-286.17 1162.17,-279.04 1151.59,-279.73 1154.33,-286.17"/>
</g>
<!-- 36 -->
<g id="node37" class="node">
<title>36</title>
<path fill="none" stroke="#56b9d8" stroke-width="2" d="M1287.5,-567C1287.5,-567 1122.5,-567 1122.5,-567 1116.5,-567 1110.5,-561 1110.5,-555 1110.5,-555 1110.5,-543 1110.5,-543 1110.5,-537 1116.5,-531 1122.5,-531 1122.5,-531 1287.5,-531 1287.5,-531 1293.5,-531 1299.5,-537 1299.5,-543 1299.5,-543 1299.5,-555 1299.5,-555 1299.5,-561 1293.5,-567 1287.5,-567"/>
<text text-anchor="middle" x="1205" y="-552" font-family="sans" font-size="10.00">wgs_somatic_pon_mutect2_normal</text>
<text text-anchor="middle" x="1205" y="-541" font-family="sans" font-size="10.00">locus: chr1</text>
</g>
<!-- 13&#45;&gt;36 -->
<g id="edge67" class="edge">
<title>13&#45;&gt;36</title>
<path fill="none" stroke="grey" stroke-width="2" d="M851.4,-607.97C919.86,-596.74 1022.73,-579.88 1099.9,-567.23"/>
<polygon fill="grey" stroke="grey" stroke-width="2" points="1100.83,-570.62 1110.13,-565.55 1099.69,-563.72 1100.83,-570.62"/>
</g>
<!-- 41 -->
<g id="node42" class="node">
<title>41</title>
<path fill="none" stroke="#d88d56" stroke-width="2" d="M1535.5,-567C1535.5,-567 1340.5,-567 1340.5,-567 1334.5,-567 1328.5,-561 1328.5,-555 1328.5,-555 1328.5,-543 1328.5,-543 1328.5,-537 1334.5,-531 1340.5,-531 1340.5,-531 1535.5,-531 1535.5,-531 1541.5,-531 1547.5,-537 1547.5,-543 1547.5,-543 1547.5,-555 1547.5,-555 1547.5,-561 1541.5,-567 1535.5,-567"/>
<text text-anchor="middle" x="1438" y="-552" font-family="sans" font-size="10.00">wgs_somatic_snp_get_pileup_summaries</text>
<text text-anchor="middle" x="1438" y="-541" font-family="sans" font-size="10.00">locus: chr1</text>
</g>
<!-- 13&#45;&gt;41 -->
<g id="edge73" class="edge">
<title>13&#45;&gt;41</title>
<path fill="none" stroke="grey" stroke-width="2" d="M851.38,-613.37C953.74,-603.96 1145.17,-585.78 1308,-567 1311.44,-566.6 1314.93,-566.19 1318.45,-565.77"/>
<polygon fill="grey" stroke="grey" stroke-width="2" points="1318.94,-569.24 1328.45,-564.57 1318.1,-562.29 1318.94,-569.24"/>
</g>
<!-- 13&#45;&gt;48 -->
<g id="edge82" class="edge">
<title>13&#45;&gt;48</title>
<path fill="none" stroke="grey" stroke-width="2" d="M721.49,-602.98C671.42,-584.76 600.71,-550.68 564,-495 537.28,-454.47 537.47,-395.54 540.45,-361.36"/>
<polygon fill="grey" stroke="grey" stroke-width="2" points="543.96,-361.48 541.49,-351.18 536.99,-360.78 543.96,-361.48"/>
</g>
<!-- 58 -->
<g id="node59" class="node">
<title>58</title>
<path fill="none" stroke="#56d8a2" stroke-width="2" d="M258,-495C258,-495 40,-495 40,-495 34,-495 28,-489 28,-483 28,-483 28,-471 28,-471 28,-465 34,-459 40,-459 40,-459 258,-459 258,-459 264,-459 270,-465 270,-471 270,-471 270,-483 270,-483 270,-489 264,-495 258,-495"/>
<text text-anchor="middle" x="149" y="-474.5" font-family="sans" font-size="10.00">wgs_std_collect_alignment_summary_metrics</text>
</g>
<!-- 13&#45;&gt;58 -->
<g id="edge91" class="edge">
<title>13&#45;&gt;58</title>
<path fill="none" stroke="grey" stroke-width="2" d="M704.8,-616.39C586.67,-609.85 359.6,-594.16 284,-567 243,-552.27 202.09,-522.69 176.24,-501.68"/>
<polygon fill="grey" stroke="grey" stroke-width="2" points="178.32,-498.86 168.39,-495.19 173.86,-504.26 178.32,-498.86"/>
</g>
<!-- 59 -->
<g id="node60" class="node">
<title>59</title>
<path fill="none" stroke="#56a2d8" stroke-width="2" d="M326.5,-423C326.5,-423 189.5,-423 189.5,-423 183.5,-423 177.5,-417 177.5,-411 177.5,-411 177.5,-399 177.5,-399 177.5,-393 183.5,-387 189.5,-387 189.5,-387 326.5,-387 326.5,-387 332.5,-387 338.5,-393 338.5,-399 338.5,-399 338.5,-411 338.5,-411 338.5,-417 332.5,-423 326.5,-423"/>
<text text-anchor="middle" x="258" y="-402.5" font-family="sans" font-size="10.00">wgs_std_collect_wgs_metrics</text>
</g>
<!-- 13&#45;&gt;59 -->
<g id="edge92" class="edge">
<title>13&#45;&gt;59</title>
<path fill="none" stroke="grey" stroke-width="2" d="M704.73,-620.76C590.06,-620.46 375.25,-613.48 317,-567 277.23,-535.26 296.82,-506.66 279,-459 275.76,-450.34 272.09,-440.94 268.73,-432.49"/>
<polygon fill="grey" stroke="grey" stroke-width="2" points="271.95,-431.1 264.98,-423.12 265.45,-433.7 271.95,-431.1"/>
</g>
<!-- 61 -->
<g id="node62" class="node">
<title>61</title>
<path fill="none" stroke="#59d856" stroke-width="2" d="M450,-567C450,-567 338,-567 338,-567 332,-567 326,-561 326,-555 326,-555 326,-543 326,-543 326,-537 332,-531 338,-531 338,-531 450,-531 450,-531 456,-531 462,-537 462,-543 462,-543 462,-555 462,-555 462,-561 456,-567 450,-567"/>
<text text-anchor="middle" x="394" y="-546.5" font-family="sans" font-size="10.00">wgs_std_samtools_stats</text>
</g>
<!-- 13&#45;&gt;61 -->
<g id="edge95" class="edge">
<title>13&#45;&gt;61</title>
<path fill="none" stroke="grey" stroke-width="2" d="M704.96,-607.83C643.73,-597.47 554.03,-581.93 476,-567 474.89,-566.79 473.78,-566.57 472.66,-566.36"/>
<polygon fill="grey" stroke="grey" stroke-width="2" points="472.91,-562.84 462.43,-564.35 471.56,-569.71 472.91,-562.84"/>
</g>
<!-- 14 -->
<g id="node15" class="node">
<title>14</title>
<path fill="none" stroke="#8fd856" stroke-width="2" d="M823.5,-711C823.5,-711 732.5,-711 732.5,-711 726.5,-711 720.5,-705 720.5,-699 720.5,-699 720.5,-687 720.5,-687 720.5,-681 726.5,-675 732.5,-675 732.5,-675 823.5,-675 823.5,-675 829.5,-675 835.5,-681 835.5,-687 835.5,-687 835.5,-699 835.5,-699 835.5,-705 829.5,-711 823.5,-711"/>
<text text-anchor="middle" x="778" y="-690.5" font-family="sans" font-size="10.00">wgs_std_apply_bqsr</text>
</g>
<!-- 14&#45;&gt;13 -->
<g id="edge36" class="edge">
<title>14&#45;&gt;13</title>
<path fill="none" stroke="grey" stroke-width="2" d="M778,-674.7C778,-666.98 778,-657.71 778,-649.11"/>
<polygon fill="grey" stroke="grey" stroke-width="2" points="781.5,-649.1 778,-639.1 774.5,-649.1 781.5,-649.1"/>
</g>
<!-- 15 -->
<g id="node16" class="node">
<title>15</title>
<path fill="none" stroke="#ced856" stroke-width="2" d="M838.5,-855C838.5,-855 719.5,-855 719.5,-855 713.5,-855 707.5,-849 707.5,-843 707.5,-843 707.5,-831 707.5,-831 707.5,-825 713.5,-819 719.5,-819 719.5,-819 838.5,-819 838.5,-819 844.5,-819 850.5,-825 850.5,-831 850.5,-831 850.5,-843 850.5,-843 850.5,-849 844.5,-855 838.5,-855"/>
<text text-anchor="middle" x="779" y="-834.5" font-family="sans" font-size="10.00">wgs_std_mark_duplicates</text>
</g>
<!-- 15&#45;&gt;14 -->
<g id="edge37" class="edge">
<title>15&#45;&gt;14</title>
<path fill="none" stroke="grey" stroke-width="2" d="M765.44,-818.97C758.44,-809.09 750.63,-796.05 747,-783 742.71,-767.59 742.82,-762.44 747,-747 749.58,-737.48 754.34,-727.92 759.38,-719.59"/>
<polygon fill="grey" stroke="grey" stroke-width="2" points="762.38,-721.39 764.85,-711.09 756.49,-717.6 762.38,-721.39"/>
</g>
<!-- 21 -->
<g id="node22" class="node">
<title>21</title>
<path fill="none" stroke="#d87556" stroke-width="2" d="M890,-783C890,-783 768,-783 768,-783 762,-783 756,-777 756,-771 756,-771 756,-759 756,-759 756,-753 762,-747 768,-747 768,-747 890,-747 890,-747 896,-747 902,-753 902,-759 902,-759 902,-771 902,-771 902,-777 896,-783 890,-783"/>
<text text-anchor="middle" x="829" y="-762.5" font-family="sans" font-size="10.00">wgs_std_base_recalibrator</text>
</g>
<!-- 15&#45;&gt;21 -->
<g id="edge45" class="edge">
<title>15&#45;&gt;21</title>
<path fill="none" stroke="grey" stroke-width="2" d="M791.36,-818.7C797.23,-810.47 804.37,-800.48 810.84,-791.42"/>
<polygon fill="grey" stroke="grey" stroke-width="2" points="813.82,-793.28 816.78,-783.1 808.12,-789.21 813.82,-793.28"/>
</g>
<!-- 16 -->
<g id="node17" class="node">
<title>16</title>
<path fill="none" stroke="#d8b456" stroke-width="2" d="M822,-927C822,-927 736,-927 736,-927 730,-927 724,-921 724,-915 724,-915 724,-903 724,-903 724,-897 730,-891 736,-891 736,-891 822,-891 822,-891 828,-891 834,-897 834,-903 834,-903 834,-915 834,-915 834,-921 828,-927 822,-927"/>
<text text-anchor="middle" x="779" y="-912" font-family="sans" font-size="10.00">wgs_std_split_bam</text>
<text text-anchor="middle" x="779" y="-901" font-family="sans" font-size="10.00">locus: chr1</text>
</g>
<!-- 16&#45;&gt;15 -->
<g id="edge39" class="edge">
<title>16&#45;&gt;15</title>
<path fill="none" stroke="grey" stroke-width="2" d="M779,-890.7C779,-882.98 779,-873.71 779,-865.11"/>
<polygon fill="grey" stroke="grey" stroke-width="2" points="782.5,-865.1 779,-855.1 775.5,-865.1 782.5,-865.1"/>
</g>
<!-- 17 -->
<g id="node18" class="node">
<title>17</title>
<path fill="none" stroke="#5663d8" stroke-width="2" d="M787,-1076C787,-1076 729,-1076 729,-1076 723,-1076 717,-1070 717,-1064 717,-1064 717,-1052 717,-1052 717,-1046 723,-1040 729,-1040 729,-1040 787,-1040 787,-1040 793,-1040 799,-1046 799,-1052 799,-1052 799,-1064 799,-1064 799,-1070 793,-1076 787,-1076"/>
<text text-anchor="middle" x="758" y="-1055.5" font-family="sans" font-size="10.00">wgs_std_bwa</text>
</g>
<!-- 17&#45;&gt;16 -->
<g id="edge40" class="edge">
<title>17&#45;&gt;16</title>
<path fill="none" stroke="grey" stroke-width="2" d="M767.95,-1039.98C773.27,-1029.89 779.27,-1016.64 782,-1004 786.77,-981.88 785.5,-956.17 783.33,-937.23"/>
<polygon fill="grey" stroke="grey" stroke-width="2" points="786.78,-936.67 782.02,-927.21 779.84,-937.57 786.78,-936.67"/>
</g>
<!-- 20 -->
<g id="node21" class="node">
<title>20</title>
<path fill="none" stroke="#d88556" stroke-width="2" d="M761,-1001.5C761,-1001.5 669,-1001.5 669,-1001.5 663,-1001.5 657,-995.5 657,-989.5 657,-989.5 657,-977.5 657,-977.5 657,-971.5 663,-965.5 669,-965.5 669,-965.5 761,-965.5 761,-965.5 767,-965.5 773,-971.5 773,-977.5 773,-977.5 773,-989.5 773,-989.5 773,-995.5 767,-1001.5 761,-1001.5"/>
<text text-anchor="middle" x="715" y="-981" font-family="sans" font-size="10.00">wgs_std_index_bam</text>
</g>
<!-- 17&#45;&gt;20 -->
<g id="edge44" class="edge">
<title>17&#45;&gt;20</title>
<path fill="none" stroke="grey" stroke-width="2" d="M747.81,-1039.82C742.56,-1030.97 736.06,-1020 730.23,-1010.17"/>
<polygon fill="grey" stroke="grey" stroke-width="2" points="733.23,-1008.37 725.12,-1001.56 727.21,-1011.94 733.23,-1008.37"/>
</g>
<!-- 57 -->
<g id="node58" class="node">
<title>57</title>
<path fill="none" stroke="#566bd8" stroke-width="2" d="M1467,-855C1467,-855 1309,-855 1309,-855 1303,-855 1297,-849 1297,-843 1297,-843 1297,-831 1297,-831 1297,-825 1303,-819 1309,-819 1309,-819 1467,-819 1467,-819 1473,-819 1479,-825 1479,-831 1479,-831 1479,-843 1479,-843 1479,-849 1473,-855 1467,-855"/>
<text text-anchor="middle" x="1388" y="-834.5" font-family="sans" font-size="10.00">wgs_std_collect_multiple_metrics</text>
</g>
<!-- 17&#45;&gt;57 -->
<g id="edge90" class="edge">
<title>17&#45;&gt;57</title>
<path fill="none" stroke="grey" stroke-width="2" d="M799.34,-1042.63C908.19,-1004.79 1203.03,-902.3 1329.31,-858.4"/>
<polygon fill="grey" stroke="grey" stroke-width="2" points="1330.53,-861.68 1338.83,-855.09 1328.23,-855.07 1330.53,-861.68"/>
</g>
<!-- 60 -->
<g id="node61" class="node">
<title>60</title>
<path fill="none" stroke="#c6d856" stroke-width="2" d="M672,-927C672,-927 586,-927 586,-927 580,-927 574,-921 574,-915 574,-915 574,-903 574,-903 574,-897 580,-891 586,-891 586,-891 672,-891 672,-891 678,-891 684,-897 684,-903 684,-903 684,-915 684,-915 684,-921 678,-927 672,-927"/>
<text text-anchor="middle" x="629" y="-906.5" font-family="sans" font-size="10.00">wgs_std_mosdepth</text>
</g>
<!-- 17&#45;&gt;60 -->
<g id="edge93" class="edge">
<title>17&#45;&gt;60</title>
<path fill="none" stroke="grey" stroke-width="2" d="M716.85,-1047.03C693.23,-1039.19 664.97,-1025.84 648,-1004 633.28,-985.06 629.11,-957.65 628.28,-937.32"/>
<polygon fill="grey" stroke="grey" stroke-width="2" points="631.78,-937.07 628.11,-927.13 624.78,-937.19 631.78,-937.07"/>
</g>
<!-- 18 -->
<g id="node19" class="node">
<title>18</title>
<path fill="none" stroke="#61d856" stroke-width="2" d="M798,-1148C798,-1148 718,-1148 718,-1148 712,-1148 706,-1142 706,-1136 706,-1136 706,-1124 706,-1124 706,-1118 712,-1112 718,-1112 718,-1112 798,-1112 798,-1112 804,-1112 810,-1118 810,-1124 810,-1124 810,-1136 810,-1136 810,-1142 804,-1148 798,-1148"/>
<text text-anchor="middle" x="758" y="-1127.5" font-family="sans" font-size="10.00">wgs_std_cutadapt</text>
</g>
<!-- 18&#45;&gt;17 -->
<g id="edge42" class="edge">
<title>18&#45;&gt;17</title>
<path fill="none" stroke="grey" stroke-width="2" d="M758,-1111.7C758,-1103.98 758,-1094.71 758,-1086.11"/>
<polygon fill="grey" stroke="grey" stroke-width="2" points="761.5,-1086.1 758,-1076.1 754.5,-1086.1 761.5,-1086.1"/>
</g>
<!-- 19 -->
<g id="node20" class="node">
<title>19</title>
<path fill="none" stroke="#d86e56" stroke-width="2" d="M805.5,-1225C805.5,-1225 710.5,-1225 710.5,-1225 704.5,-1225 698.5,-1219 698.5,-1213 698.5,-1213 698.5,-1196 698.5,-1196 698.5,-1190 704.5,-1184 710.5,-1184 710.5,-1184 805.5,-1184 805.5,-1184 811.5,-1184 817.5,-1190 817.5,-1196 817.5,-1196 817.5,-1213 817.5,-1213 817.5,-1219 811.5,-1225 805.5,-1225"/>
<text text-anchor="middle" x="758" y="-1213" font-family="sans" font-size="10.00">wgs_std_combine_fq</text>
<text text-anchor="middle" x="758" y="-1202" font-family="sans" font-size="10.00">sample: NA12878</text>
<text text-anchor="middle" x="758" y="-1191" font-family="sans" font-size="10.00">unit: N</text>
</g>
<!-- 19&#45;&gt;18 -->
<g id="edge43" class="edge">
<title>19&#45;&gt;18</title>
<path fill="none" stroke="grey" stroke-width="2" d="M758,-1183.69C758,-1175.91 758,-1166.84 758,-1158.45"/>
<polygon fill="grey" stroke="grey" stroke-width="2" points="761.5,-1158.32 758,-1148.32 754.5,-1158.32 761.5,-1158.32"/>
</g>
<!-- 20&#45;&gt;16 -->
<g id="edge41" class="edge">
<title>20&#45;&gt;16</title>
<path fill="none" stroke="grey" stroke-width="2" d="M730.17,-965.32C738.22,-956.2 748.25,-944.83 757.13,-934.77"/>
<polygon fill="grey" stroke="grey" stroke-width="2" points="759.95,-936.87 763.94,-927.06 754.7,-932.24 759.95,-936.87"/>
</g>
<!-- 20&#45;&gt;60 -->
<g id="edge94" class="edge">
<title>20&#45;&gt;60</title>
<path fill="none" stroke="grey" stroke-width="2" d="M694.62,-965.32C683.37,-955.84 669.24,-943.93 656.98,-933.58"/>
<polygon fill="grey" stroke="grey" stroke-width="2" points="659.14,-930.83 649.23,-927.06 654.62,-936.18 659.14,-930.83"/>
</g>
<!-- 21&#45;&gt;14 -->
<g id="edge38" class="edge">
<title>21&#45;&gt;14</title>
<path fill="none" stroke="grey" stroke-width="2" d="M816.39,-746.7C810.4,-738.47 803.12,-728.48 796.52,-719.42"/>
<polygon fill="grey" stroke="grey" stroke-width="2" points="799.18,-717.13 790.46,-711.1 793.52,-721.25 799.18,-717.13"/>
</g>
<!-- 22 -->
<g id="node23" class="node">
<title>22</title>
<path fill="none" stroke="#56d8a9" stroke-width="2" d="M738.5,-495C738.5,-495 585.5,-495 585.5,-495 579.5,-495 573.5,-489 573.5,-483 573.5,-483 573.5,-471 573.5,-471 573.5,-465 579.5,-459 585.5,-459 585.5,-459 738.5,-459 738.5,-459 744.5,-459 750.5,-465 750.5,-471 750.5,-471 750.5,-483 750.5,-483 750.5,-489 744.5,-495 738.5,-495"/>
<text text-anchor="middle" x="662" y="-474.5" font-family="sans" font-size="10.00">wgs_somatic_pon_cnvkit_access</text>
</g>
<!-- 22&#45;&gt;12 -->
<g id="edge35" class="edge">
<title>22&#45;&gt;12</title>
<path fill="none" stroke="grey" stroke-width="2" d="M667.93,-458.7C670.61,-450.9 673.83,-441.51 676.8,-432.83"/>
<polygon fill="grey" stroke="grey" stroke-width="2" points="680.2,-433.7 680.14,-423.1 673.58,-431.43 680.2,-433.7"/>
</g>
<!-- 23 -->
<g id="node24" class="node">
<title>23</title>
<path fill="none" stroke="#56d87b" stroke-width="2" d="M2326.5,-207C2326.5,-207 2159.5,-207 2159.5,-207 2153.5,-207 2147.5,-201 2147.5,-195 2147.5,-195 2147.5,-183 2147.5,-183 2147.5,-177 2153.5,-171 2159.5,-171 2159.5,-171 2326.5,-171 2326.5,-171 2332.5,-171 2338.5,-177 2338.5,-183 2338.5,-183 2338.5,-195 2338.5,-195 2338.5,-201 2332.5,-207 2326.5,-207"/>
<text text-anchor="middle" x="2243" y="-192" font-family="sans" font-size="10.00">wgs_somatic_cnv_sv_pon_filter_vcf</text>
<text text-anchor="middle" x="2243" y="-181" font-family="sans" font-size="10.00">tool: cnvnator</text>
</g>
<!-- 23&#45;&gt;0 -->
<g id="edge2" class="edge">
<title>23&#45;&gt;0</title>
<path fill="none" stroke="grey" stroke-width="2" d="M2232.35,-170.62C2215.12,-144.23 2178.42,-94.72 2133,-72 2059.66,-35.31 1809.57,-23.36 1714.29,-20.08"/>
<polygon fill="grey" stroke="grey" stroke-width="2" points="1714.35,-16.58 1704.24,-19.75 1714.12,-23.58 1714.35,-16.58"/>
</g>
<!-- 24 -->
<g id="node25" class="node">
<title>24</title>
<path fill="none" stroke="#567bd8" stroke-width="2" d="M2207,-279C2207,-279 2043,-279 2043,-279 2037,-279 2031,-273 2031,-267 2031,-267 2031,-255 2031,-255 2031,-249 2037,-243 2043,-243 2043,-243 2207,-243 2207,-243 2213,-243 2219,-249 2219,-255 2219,-255 2219,-267 2219,-267 2219,-273 2213,-279 2207,-279"/>
<text text-anchor="middle" x="2125" y="-258.5" font-family="sans" font-size="10.00">wgs_somatic_cnv_sv_cnvnator2vcf</text>
</g>
<!-- 24&#45;&gt;23 -->
<g id="edge46" class="edge">
<title>24&#45;&gt;23</title>
<path fill="none" stroke="grey" stroke-width="2" d="M2153.87,-242.88C2169.29,-233.72 2188.48,-222.34 2205.1,-212.48"/>
<polygon fill="grey" stroke="grey" stroke-width="2" points="2207.21,-215.3 2214.02,-207.19 2203.64,-209.28 2207.21,-215.3"/>
</g>
<!-- 25&#45;&gt;24 -->
<g id="edge47" class="edge">
<title>25&#45;&gt;24</title>
<path fill="none" stroke="grey" stroke-width="2" d="M2121.24,-314.7C2121.79,-306.98 2122.45,-297.71 2123.06,-289.11"/>
<polygon fill="grey" stroke="grey" stroke-width="2" points="2126.56,-289.33 2123.78,-279.1 2119.57,-288.83 2126.56,-289.33"/>
</g>
<!-- 26 -->
<g id="node27" class="node">
<title>26</title>
<path fill="none" stroke="#56d87b" stroke-width="2" d="M1174.5,-121.5C1174.5,-121.5 1007.5,-121.5 1007.5,-121.5 1001.5,-121.5 995.5,-115.5 995.5,-109.5 995.5,-109.5 995.5,-97.5 995.5,-97.5 995.5,-91.5 1001.5,-85.5 1007.5,-85.5 1007.5,-85.5 1174.5,-85.5 1174.5,-85.5 1180.5,-85.5 1186.5,-91.5 1186.5,-97.5 1186.5,-97.5 1186.5,-109.5 1186.5,-109.5 1186.5,-115.5 1180.5,-121.5 1174.5,-121.5"/>
<text text-anchor="middle" x="1091" y="-106.5" font-family="sans" font-size="10.00">wgs_somatic_cnv_sv_pon_filter_vcf</text>
<text text-anchor="middle" x="1091" y="-95.5" font-family="sans" font-size="10.00">tool: manta</text>
</g>
<!-- 26&#45;&gt;0 -->
<g id="edge3" class="edge">
<title>26&#45;&gt;0</title>
<path fill="none" stroke="grey" stroke-width="2" d="M1186.78,-88.85C1318.67,-70.06 1550.05,-37.09 1639.88,-24.29"/>
<polygon fill="grey" stroke="grey" stroke-width="2" points="1640.46,-27.74 1649.87,-22.87 1639.47,-20.81 1640.46,-27.74"/>
</g>
<!-- 27 -->
<g id="node28" class="node">
<title>27</title>
<path fill="none" stroke="#56c1d8" stroke-width="2" d="M882.5,-207C882.5,-207 703.5,-207 703.5,-207 697.5,-207 691.5,-201 691.5,-195 691.5,-195 691.5,-183 691.5,-183 691.5,-177 697.5,-171 703.5,-171 703.5,-171 882.5,-171 882.5,-171 888.5,-171 894.5,-177 894.5,-183 894.5,-183 894.5,-195 894.5,-195 894.5,-201 888.5,-207 882.5,-207"/>
<text text-anchor="middle" x="793" y="-186.5" font-family="sans" font-size="10.00">wgs_somatic_cnv_sv_prep_manta_vcf</text>
</g>
<!-- 27&#45;&gt;26 -->
<g id="edge49" class="edge">
<title>27&#45;&gt;26</title>
<path fill="none" stroke="grey" stroke-width="2" d="M854.02,-170.9C902.31,-157.37 969.81,-138.46 1020.43,-124.27"/>
<polygon fill="grey" stroke="grey" stroke-width="2" points="1021.63,-127.57 1030.31,-121.5 1019.74,-120.83 1021.63,-127.57"/>
</g>
<!-- 28&#45;&gt;27 -->
<g id="edge50" class="edge">
<title>28&#45;&gt;27</title>
<path fill="none" stroke="grey" stroke-width="2" d="M857.74,-242.7C846.91,-233.88 833.58,-223.03 821.84,-213.47"/>
<polygon fill="grey" stroke="grey" stroke-width="2" points="823.98,-210.7 814.01,-207.1 819.56,-216.13 823.98,-210.7"/>
</g>
<!-- 29&#45;&gt;28 -->
<g id="edge53" class="edge">
<title>29&#45;&gt;28</title>
<path fill="none" stroke="grey" stroke-width="2" d="M925.67,-314.7C918.24,-306.3 909.18,-296.07 901.02,-286.86"/>
<polygon fill="grey" stroke="grey" stroke-width="2" points="903.4,-284.27 894.15,-279.1 898.16,-288.91 903.4,-284.27"/>
</g>
<!-- 30 -->
<g id="node31" class="node">
<title>30</title>
<path fill="none" stroke="#d6d856" stroke-width="2" d="M1537,-121.5C1537,-121.5 1363,-121.5 1363,-121.5 1357,-121.5 1351,-115.5 1351,-109.5 1351,-109.5 1351,-97.5 1351,-97.5 1351,-91.5 1357,-85.5 1363,-85.5 1363,-85.5 1537,-85.5 1537,-85.5 1543,-85.5 1549,-91.5 1549,-97.5 1549,-97.5 1549,-109.5 1549,-109.5 1549,-115.5 1543,-121.5 1537,-121.5"/>
<text text-anchor="middle" x="1450" y="-101" font-family="sans" font-size="10.00">wgs_somatic_snp_filter_mutect_calls</text>
</g>
<!-- 30&#45;&gt;0 -->
<g id="edge4" class="edge">
<title>30&#45;&gt;0</title>
<path fill="none" stroke="grey" stroke-width="2" d="M1496.48,-85.4C1539.05,-69.74 1601.22,-46.88 1640.37,-32.48"/>
<polygon fill="grey" stroke="grey" stroke-width="2" points="1641.62,-35.74 1649.8,-29.01 1639.2,-29.17 1641.62,-35.74"/>
</g>
<!-- 31 -->
<g id="node32" class="node">
<title>31</title>
<path fill="none" stroke="#56a9d8" stroke-width="2" d="M1292.5,-207C1292.5,-207 1151.5,-207 1151.5,-207 1145.5,-207 1139.5,-201 1139.5,-195 1139.5,-195 1139.5,-183 1139.5,-183 1139.5,-177 1145.5,-171 1151.5,-171 1151.5,-171 1292.5,-171 1292.5,-171 1298.5,-171 1304.5,-177 1304.5,-183 1304.5,-183 1304.5,-195 1304.5,-195 1304.5,-201 1298.5,-207 1292.5,-207"/>
<text text-anchor="middle" x="1222" y="-186.5" font-family="sans" font-size="10.00">wgs_somatic_snp_merge_vcfs</text>
</g>
<!-- 31&#45;&gt;30 -->
<g id="edge56" class="edge">
<title>31&#45;&gt;30</title>
<path fill="none" stroke="grey" stroke-width="2" d="M1268.69,-170.9C1304.96,-157.62 1355.4,-139.15 1393.87,-125.06"/>
<polygon fill="grey" stroke="grey" stroke-width="2" points="1395.19,-128.3 1403.37,-121.58 1392.78,-121.73 1395.19,-128.3"/>
</g>
<!-- 32&#45;&gt;31 -->
<g id="edge60" class="edge">
<title>32&#45;&gt;31</title>
<path fill="none" stroke="grey" stroke-width="2" d="M1222,-242.7C1222,-234.98 1222,-225.71 1222,-217.11"/>
<polygon fill="grey" stroke="grey" stroke-width="2" points="1225.5,-217.1 1222,-207.1 1218.5,-217.1 1225.5,-217.1"/>
</g>
<!-- 42 -->
<g id="node43" class="node">
<title>42</title>
<path fill="none" stroke="#78d856" stroke-width="2" d="M1565,-207C1565,-207 1335,-207 1335,-207 1329,-207 1323,-201 1323,-195 1323,-195 1323,-183 1323,-183 1323,-177 1329,-171 1335,-171 1335,-171 1565,-171 1565,-171 1571,-171 1577,-177 1577,-183 1577,-183 1577,-195 1577,-195 1577,-201 1571,-207 1565,-207"/>
<text text-anchor="middle" x="1450" y="-186.5" font-family="sans" font-size="10.00">wgs_somatic_snp_learn_read_orientation_model</text>
</g>
<!-- 32&#45;&gt;42 -->
<g id="edge74" class="edge">
<title>32&#45;&gt;42</title>
<path fill="none" stroke="grey" stroke-width="2" d="M1277.48,-242.97C1309.76,-233.06 1350.61,-220.51 1384.46,-210.12"/>
<polygon fill="grey" stroke="grey" stroke-width="2" points="1385.74,-213.39 1394.27,-207.11 1383.68,-206.7 1385.74,-213.39"/>
</g>
<!-- 43 -->
<g id="node44" class="node">
<title>43</title>
<path fill="none" stroke="#56d0d8" stroke-width="2" d="M1109.5,-207C1109.5,-207 924.5,-207 924.5,-207 918.5,-207 912.5,-201 912.5,-195 912.5,-195 912.5,-183 912.5,-183 912.5,-177 918.5,-171 924.5,-171 924.5,-171 1109.5,-171 1109.5,-171 1115.5,-171 1121.5,-177 1121.5,-183 1121.5,-183 1121.5,-195 1121.5,-195 1121.5,-201 1115.5,-207 1109.5,-207"/>
<text text-anchor="middle" x="1017" y="-186.5" font-family="sans" font-size="10.00">wgs_somatic_snp_merge_mutect_stats</text>
</g>
<!-- 32&#45;&gt;43 -->
<g id="edge75" class="edge">
<title>32&#45;&gt;43</title>
<path fill="none" stroke="grey" stroke-width="2" d="M1172.11,-242.97C1143.35,-233.14 1106.99,-220.73 1076.71,-210.39"/>
<polygon fill="grey" stroke="grey" stroke-width="2" points="1077.7,-207.03 1067.11,-207.11 1075.44,-213.65 1077.7,-207.03"/>
</g>
<!-- 33 -->
<g id="node34" class="node">
<title>33</title>
<path fill="none" stroke="#56d88a" stroke-width="2" d="M1318.5,-351C1318.5,-351 1125.5,-351 1125.5,-351 1119.5,-351 1113.5,-345 1113.5,-339 1113.5,-339 1113.5,-327 1113.5,-327 1113.5,-321 1119.5,-315 1125.5,-315 1125.5,-315 1318.5,-315 1318.5,-315 1324.5,-315 1330.5,-321 1330.5,-327 1330.5,-327 1330.5,-339 1330.5,-339 1330.5,-345 1324.5,-351 1318.5,-351"/>
<text text-anchor="middle" x="1222" y="-330.5" font-family="sans" font-size="10.00">wgs_somatic_pon_mutect2_somatic_pon</text>
</g>
<!-- 33&#45;&gt;32 -->
<g id="edge63" class="edge">
<title>33&#45;&gt;32</title>
<path fill="none" stroke="grey" stroke-width="2" d="M1222,-314.7C1222,-306.98 1222,-297.71 1222,-289.11"/>
<polygon fill="grey" stroke="grey" stroke-width="2" points="1225.5,-289.1 1222,-279.1 1218.5,-289.1 1225.5,-289.1"/>
</g>
<!-- 34 -->
<g id="node35" class="node">
<title>34</title>
<path fill="none" stroke="#9fd856" stroke-width="2" d="M1338.5,-423C1338.5,-423 1105.5,-423 1105.5,-423 1099.5,-423 1093.5,-417 1093.5,-411 1093.5,-411 1093.5,-399 1093.5,-399 1093.5,-393 1099.5,-387 1105.5,-387 1105.5,-387 1338.5,-387 1338.5,-387 1344.5,-387 1350.5,-393 1350.5,-399 1350.5,-399 1350.5,-411 1350.5,-411 1350.5,-417 1344.5,-423 1338.5,-423"/>
<text text-anchor="middle" x="1222" y="-402.5" font-family="sans" font-size="10.00">wgs_somatic_pon_mutect2_genomics_db_import</text>
</g>
<!-- 34&#45;&gt;33 -->
<g id="edge64" class="edge">
<title>34&#45;&gt;33</title>
<path fill="none" stroke="grey" stroke-width="2" d="M1222,-386.7C1222,-378.98 1222,-369.71 1222,-361.11"/>
<polygon fill="grey" stroke="grey" stroke-width="2" points="1225.5,-361.1 1222,-351.1 1218.5,-361.1 1225.5,-361.1"/>
</g>
<!-- 35 -->
<g id="node36" class="node">
<title>35</title>
<path fill="none" stroke="#568ad8" stroke-width="2" d="M1291.5,-495C1291.5,-495 1136.5,-495 1136.5,-495 1130.5,-495 1124.5,-489 1124.5,-483 1124.5,-483 1124.5,-471 1124.5,-471 1124.5,-465 1130.5,-459 1136.5,-459 1136.5,-459 1291.5,-459 1291.5,-459 1297.5,-459 1303.5,-465 1303.5,-471 1303.5,-471 1303.5,-483 1303.5,-483 1303.5,-489 1297.5,-495 1291.5,-495"/>
<text text-anchor="middle" x="1214" y="-474.5" font-family="sans" font-size="10.00">wgs_somatic_pon_merge_vcfs_N</text>
</g>
<!-- 35&#45;&gt;34 -->
<g id="edge65" class="edge">
<title>35&#45;&gt;34</title>
<path fill="none" stroke="grey" stroke-width="2" d="M1215.98,-458.7C1216.86,-450.98 1217.92,-441.71 1218.9,-433.11"/>
<polygon fill="grey" stroke="grey" stroke-width="2" points="1222.39,-433.44 1220.05,-423.1 1215.43,-432.64 1222.39,-433.44"/>
</g>
<!-- 36&#45;&gt;35 -->
<g id="edge66" class="edge">
<title>36&#45;&gt;35</title>
<path fill="none" stroke="grey" stroke-width="2" d="M1207.22,-530.7C1208.22,-522.98 1209.41,-513.71 1210.51,-505.11"/>
<polygon fill="grey" stroke="grey" stroke-width="2" points="1214,-505.47 1211.8,-495.1 1207.05,-504.58 1214,-505.47"/>
</g>
<!-- 37 -->
<g id="node38" class="node">
<title>37</title>
<path fill="none" stroke="#d85e56" stroke-width="2" d="M1811,-207C1811,-207 1607,-207 1607,-207 1601,-207 1595,-201 1595,-195 1595,-195 1595,-183 1595,-183 1595,-177 1601,-171 1607,-171 1607,-171 1811,-171 1811,-171 1817,-171 1823,-177 1823,-183 1823,-183 1823,-195 1823,-195 1823,-201 1817,-207 1811,-207"/>
<text text-anchor="middle" x="1709" y="-186.5" font-family="sans" font-size="10.00">wgs_somatic_snp_calculate_contamination</text>
</g>
<!-- 37&#45;&gt;30 -->
<g id="edge57" class="edge">
<title>37&#45;&gt;30</title>
<path fill="none" stroke="grey" stroke-width="2" d="M1655.96,-170.9C1614.41,-157.5 1556.5,-138.83 1512.66,-124.7"/>
<polygon fill="grey" stroke="grey" stroke-width="2" points="1513.56,-121.31 1502.97,-121.58 1511.41,-127.98 1513.56,-121.31"/>
</g>
<!-- 38 -->
<g id="node39" class="node">
<title>38</title>
<path fill="none" stroke="#56d8d8" stroke-width="2" d="M1848.5,-279C1848.5,-279 1637.5,-279 1637.5,-279 1631.5,-279 1625.5,-273 1625.5,-267 1625.5,-267 1625.5,-255 1625.5,-255 1625.5,-249 1631.5,-243 1637.5,-243 1637.5,-243 1848.5,-243 1848.5,-243 1854.5,-243 1860.5,-249 1860.5,-255 1860.5,-255 1860.5,-267 1860.5,-267 1860.5,-273 1854.5,-279 1848.5,-279"/>
<text text-anchor="middle" x="1743" y="-258.5" font-family="sans" font-size="10.00">wgs_somatic_snp_gather_pileup_summaries</text>
</g>
<!-- 38&#45;&gt;37 -->
<g id="edge68" class="edge">
<title>38&#45;&gt;37</title>
<path fill="none" stroke="grey" stroke-width="2" d="M1734.6,-242.7C1730.73,-234.73 1726.05,-225.1 1721.76,-216.26"/>
<polygon fill="grey" stroke="grey" stroke-width="2" points="1724.83,-214.57 1717.31,-207.1 1718.53,-217.63 1724.83,-214.57"/>
</g>
<!-- 39&#45;&gt;38 -->
<g id="edge70" class="edge">
<title>39&#45;&gt;38</title>
<path fill="none" stroke="grey" stroke-width="2" d="M1746.01,-314.7C1745.57,-306.98 1745.04,-297.71 1744.55,-289.11"/>
<polygon fill="grey" stroke="grey" stroke-width="2" points="1748.04,-288.89 1743.98,-279.1 1741.05,-289.29 1748.04,-288.89"/>
</g>
<!-- 40 -->
<g id="node41" class="node">
<title>40</title>
<path fill="none" stroke="#56d8d8" stroke-width="2" d="M1554.5,-495C1554.5,-495 1343.5,-495 1343.5,-495 1337.5,-495 1331.5,-489 1331.5,-483 1331.5,-483 1331.5,-471 1331.5,-471 1331.5,-465 1337.5,-459 1343.5,-459 1343.5,-459 1554.5,-459 1554.5,-459 1560.5,-459 1566.5,-465 1566.5,-471 1566.5,-471 1566.5,-483 1566.5,-483 1566.5,-489 1560.5,-495 1554.5,-495"/>
<text text-anchor="middle" x="1449" y="-474.5" font-family="sans" font-size="10.00">wgs_somatic_snp_gather_pileup_summaries</text>
</g>
<!-- 40&#45;&gt;37 -->
<g id="edge69" class="edge">
<title>40&#45;&gt;37</title>
<path fill="none" stroke="grey" stroke-width="2" d="M1454.51,-458.87C1468.92,-416.56 1511.65,-306.02 1583,-243 1598.59,-229.23 1618.28,-218.67 1637.43,-210.75"/>
<polygon fill="grey" stroke="grey" stroke-width="2" points="1638.75,-213.99 1646.76,-207.07 1636.18,-207.48 1638.75,-213.99"/>
</g>
<!-- 41&#45;&gt;40 -->
<g id="edge72" class="edge">
<title>41&#45;&gt;40</title>
<path fill="none" stroke="grey" stroke-width="2" d="M1440.72,-530.7C1441.93,-522.98 1443.39,-513.71 1444.74,-505.11"/>
<polygon fill="grey" stroke="grey" stroke-width="2" points="1448.22,-505.53 1446.31,-495.1 1441.3,-504.44 1448.22,-505.53"/>
</g>
<!-- 42&#45;&gt;30 -->
<g id="edge58" class="edge">
<title>42&#45;&gt;30</title>
<path fill="none" stroke="grey" stroke-width="2" d="M1450,-170.7C1450,-159.5 1450,-144.69 1450,-131.91"/>
<polygon fill="grey" stroke="grey" stroke-width="2" points="1453.5,-131.78 1450,-121.78 1446.5,-131.78 1453.5,-131.78"/>
</g>
<!-- 43&#45;&gt;30 -->
<g id="edge59" class="edge">
<title>43&#45;&gt;30</title>
<path fill="none" stroke="grey" stroke-width="2" d="M1105.41,-170.95C1176.87,-157.17 1277.4,-137.78 1351.45,-123.5"/>
<polygon fill="grey" stroke="grey" stroke-width="2" points="1352.56,-126.86 1361.71,-121.53 1351.23,-119.98 1352.56,-126.86"/>
</g>
<!-- 44 -->
<g id="node45" class="node">
<title>44</title>
<path fill="none" stroke="#56d87b" stroke-width="2" d="M2416.5,-279C2416.5,-279 2249.5,-279 2249.5,-279 2243.5,-279 2237.5,-273 2237.5,-267 2237.5,-267 2237.5,-255 2237.5,-255 2237.5,-249 2243.5,-243 2249.5,-243 2249.5,-243 2416.5,-243 2416.5,-243 2422.5,-243 2428.5,-249 2428.5,-255 2428.5,-255 2428.5,-267 2428.5,-267 2428.5,-273 2422.5,-279 2416.5,-279"/>
<text text-anchor="middle" x="2333" y="-264" font-family="sans" font-size="10.00">wgs_somatic_cnv_sv_pon_filter_vcf</text>
<text text-anchor="middle" x="2333" y="-253" font-family="sans" font-size="10.00">tool: tiddit</text>
</g>
<!-- 44&#45;&gt;0 -->
<g id="edge5" class="edge">
<title>44&#45;&gt;0</title>
<path fill="none" stroke="grey" stroke-width="2" d="M2342.18,-242.78C2350.85,-223.96 2360.77,-193.48 2348,-171 2305.58,-96.3 2263.51,-99.12 2182,-72 2094.95,-43.04 1815.64,-26.14 1714.23,-20.83"/>
<polygon fill="grey" stroke="grey" stroke-width="2" points="1714.32,-17.33 1704.15,-20.31 1713.96,-24.32 1714.32,-17.33"/>
</g>
<!-- 45&#45;&gt;44 -->
<g id="edge76" class="edge">
<title>45&#45;&gt;44</title>
<path fill="none" stroke="grey" stroke-width="2" d="M2319.45,-314.7C2321.45,-306.9 2323.87,-297.51 2326.1,-288.83"/>
<polygon fill="grey" stroke="grey" stroke-width="2" points="2329.5,-289.66 2328.6,-279.1 2322.72,-287.92 2329.5,-289.66"/>
</g>
<!-- 46 -->
<g id="node47" class="node">
<title>46</title>
<path fill="none" stroke="#56d882" stroke-width="2" d="M625,-121.5C625,-121.5 465,-121.5 465,-121.5 459,-121.5 453,-115.5 453,-109.5 453,-109.5 453,-97.5 453,-97.5 453,-91.5 459,-85.5 465,-85.5 465,-85.5 625,-85.5 625,-85.5 631,-85.5 637,-91.5 637,-97.5 637,-97.5 637,-109.5 637,-109.5 637,-115.5 631,-121.5 625,-121.5"/>
<text text-anchor="middle" x="545" y="-101" font-family="sans" font-size="10.00">wgs_somatic_snp_bcftools_concat</text>
</g>
<!-- 46&#45;&gt;0 -->
<g id="edge6" class="edge">
<title>46&#45;&gt;0</title>
<path fill="none" stroke="grey" stroke-width="2" d="M630.55,-85.43C658.63,-80.38 690.05,-75.33 719,-72 1075.93,-30.99 1511.45,-21.46 1639.77,-19.48"/>
<polygon fill="grey" stroke="grey" stroke-width="2" points="1639.9,-22.98 1649.85,-19.33 1639.8,-15.98 1639.9,-22.98"/>
</g>
<!-- 47 -->
<g id="node48" class="node">
<title>47</title>
<path fill="none" stroke="#d85656" stroke-width="2" d="M619.5,-279C619.5,-279 468.5,-279 468.5,-279 462.5,-279 456.5,-273 456.5,-267 456.5,-267 456.5,-255 456.5,-255 456.5,-249 462.5,-243 468.5,-243 468.5,-243 619.5,-243 619.5,-243 625.5,-243 631.5,-249 631.5,-255 631.5,-255 631.5,-267 631.5,-267 631.5,-273 625.5,-279 619.5,-279"/>
<text text-anchor="middle" x="544" y="-258.5" font-family="sans" font-size="10.00">wgs_somatic_snp_bcftools_view</text>
</g>
<!-- 47&#45;&gt;46 -->
<g id="edge78" class="edge">
<title>47&#45;&gt;46</title>
<path fill="none" stroke="grey" stroke-width="2" d="M489.18,-242.96C472.34,-234.87 455.71,-223.28 446,-207 437.81,-193.26 438.47,-185.12 446,-171 456.25,-151.76 474.81,-137.1 493.12,-126.51"/>
<polygon fill="grey" stroke="grey" stroke-width="2" points="494.95,-129.5 502.04,-121.63 491.59,-123.35 494.95,-129.5"/>
</g>
<!-- 49 -->
<g id="node50" class="node">
<title>49</title>
<path fill="none" stroke="#80d856" stroke-width="2" d="M622.5,-207C622.5,-207 467.5,-207 467.5,-207 461.5,-207 455.5,-201 455.5,-195 455.5,-195 455.5,-183 455.5,-183 455.5,-177 461.5,-171 467.5,-171 467.5,-171 622.5,-171 622.5,-171 628.5,-171 634.5,-177 634.5,-183 634.5,-183 634.5,-195 634.5,-195 634.5,-201 628.5,-207 622.5,-207"/>
<text text-anchor="middle" x="545" y="-186.5" font-family="sans" font-size="10.00">wgs_somatic_snp_bcftools_index</text>
</g>
<!-- 47&#45;&gt;49 -->
<g id="edge83" class="edge">
<title>47&#45;&gt;49</title>
<path fill="none" stroke="grey" stroke-width="2" d="M544.25,-242.7C544.36,-234.98 544.49,-225.71 544.61,-217.11"/>
<polygon fill="grey" stroke="grey" stroke-width="2" points="548.11,-217.15 544.76,-207.1 541.11,-217.05 548.11,-217.15"/>
</g>
<!-- 48&#45;&gt;47 -->
<g id="edge80" class="edge">
<title>48&#45;&gt;47</title>
<path fill="none" stroke="grey" stroke-width="2" d="M544,-314.7C544,-306.98 544,-297.71 544,-289.11"/>
<polygon fill="grey" stroke="grey" stroke-width="2" points="547.5,-289.1 544,-279.1 540.5,-289.1 547.5,-289.1"/>
</g>
<!-- 49&#45;&gt;46 -->
<g id="edge79" class="edge">
<title>49&#45;&gt;46</title>
<path fill="none" stroke="grey" stroke-width="2" d="M545,-170.7C545,-159.5 545,-144.69 545,-131.91"/>
<polygon fill="grey" stroke="grey" stroke-width="2" points="548.5,-131.78 545,-121.78 541.5,-131.78 548.5,-131.78"/>
</g>
<!-- 50 -->
<g id="node51" class="node">
<title>50</title>
<path fill="none" stroke="#d8cb56" stroke-width="2" d="M2614.5,-135C2614.5,-135 2535.5,-135 2535.5,-135 2529.5,-135 2523.5,-129 2523.5,-123 2523.5,-123 2523.5,-84 2523.5,-84 2523.5,-78 2529.5,-72 2535.5,-72 2535.5,-72 2614.5,-72 2614.5,-72 2620.5,-72 2626.5,-78 2626.5,-84 2626.5,-84 2626.5,-123 2626.5,-123 2626.5,-129 2620.5,-135 2614.5,-135"/>
<text text-anchor="middle" x="2575" y="-123" font-family="sans" font-size="10.00">wgs_std_fastqc</text>
<text text-anchor="middle" x="2575" y="-112" font-family="sans" font-size="10.00">lane: 1</text>
<text text-anchor="middle" x="2575" y="-101" font-family="sans" font-size="10.00">run: 1</text>
<text text-anchor="middle" x="2575" y="-90" font-family="sans" font-size="10.00">sample: NA12878</text>
<text text-anchor="middle" x="2575" y="-79" font-family="sans" font-size="10.00">unit: T</text>
</g>
<!-- 50&#45;&gt;0 -->
<g id="edge7" class="edge">
<title>50&#45;&gt;0</title>
<path fill="none" stroke="grey" stroke-width="2" d="M2523.41,-76.52C2518.62,-74.76 2513.77,-73.21 2509,-72 2355.34,-33.05 1855.51,-21.95 1714.4,-19.56"/>
<polygon fill="grey" stroke="grey" stroke-width="2" points="1714.17,-16.06 1704.12,-19.39 1714.06,-23.05 1714.17,-16.06"/>
</g>
<!-- 51 -->
<g id="node52" class="node">
<title>51</title>
<path fill="none" stroke="#d8cb56" stroke-width="2" d="M2735.5,-135C2735.5,-135 2656.5,-135 2656.5,-135 2650.5,-135 2644.5,-129 2644.5,-123 2644.5,-123 2644.5,-84 2644.5,-84 2644.5,-78 2650.5,-72 2656.5,-72 2656.5,-72 2735.5,-72 2735.5,-72 2741.5,-72 2747.5,-78 2747.5,-84 2747.5,-84 2747.5,-123 2747.5,-123 2747.5,-129 2741.5,-135 2735.5,-135"/>
<text text-anchor="middle" x="2696" y="-123" font-family="sans" font-size="10.00">wgs_std_fastqc</text>
<text text-anchor="middle" x="2696" y="-112" font-family="sans" font-size="10.00">lane: 1</text>
<text text-anchor="middle" x="2696" y="-101" font-family="sans" font-size="10.00">run: 1</text>
<text text-anchor="middle" x="2696" y="-90" font-family="sans" font-size="10.00">sample: NA12878</text>
<text text-anchor="middle" x="2696" y="-79" font-family="sans" font-size="10.00">unit: N</text>
</g>
<!-- 51&#45;&gt;0 -->
<g id="edge8" class="edge">
<title>51&#45;&gt;0</title>
<path fill="none" stroke="grey" stroke-width="2" d="M2644.5,-74.67C2641.66,-73.66 2638.82,-72.76 2636,-72 2457.52,-23.99 1869.04,-19.39 1714.46,-19.01"/>
<polygon fill="grey" stroke="grey" stroke-width="2" points="1714.1,-15.51 1704.1,-18.99 1714.09,-22.51 1714.1,-15.51"/>
</g>
<!-- 52&#45;&gt;0 -->
<g id="edge9" class="edge">
<title>52&#45;&gt;0</title>
<path fill="none" stroke="grey" stroke-width="2" d="M2558.42,-602.98C2534.6,-577.99 2495,-528.8 2495,-478 2495,-478 2495,-478 2495,-188 2495,-135.35 2510.69,-106.58 2471,-72 2413.46,-21.87 1863.79,-18.79 1714.35,-18.89"/>
<polygon fill="grey" stroke="grey" stroke-width="2" points="1714.29,-15.39 1704.29,-18.9 1714.29,-22.39 1714.29,-15.39"/>
</g>
<!-- 53&#45;&gt;0 -->
<g id="edge10" class="edge">
<title>53&#45;&gt;0</title>
<path fill="none" stroke="grey" stroke-width="2" d="M1736.46,-85.2C1725.7,-73.22 1711.22,-57.09 1699.24,-43.76"/>
<polygon fill="grey" stroke="grey" stroke-width="2" points="1701.81,-41.38 1692.52,-36.28 1696.6,-46.06 1701.81,-41.38"/>
</g>
<!-- 54&#45;&gt;0 -->
<g id="edge11" class="edge">
<title>54&#45;&gt;0</title>
<path fill="none" stroke="grey" stroke-width="2" d="M1923.63,-85.38C1910.21,-80.83 1895.6,-76.06 1882,-72 1823.71,-54.61 1755.12,-37.56 1713.9,-27.67"/>
<polygon fill="grey" stroke="grey" stroke-width="2" points="1714.58,-24.23 1704.04,-25.32 1712.95,-31.04 1714.58,-24.23"/>
</g>
<!-- 55&#45;&gt;0 -->
<g id="edge13" class="edge">
<title>55&#45;&gt;0</title>
<path fill="none" stroke="grey" stroke-width="2" d="M2457,-674.95C2457,-648.29 2457,-595.11 2457,-550 2457,-550 2457,-550 2457,-188 2457,-34.1 1869.66,-20.04 1714.31,-19.01"/>
<polygon fill="grey" stroke="grey" stroke-width="2" points="1714.32,-15.51 1704.3,-18.96 1714.29,-22.51 1714.32,-15.51"/>
</g>
<!-- 56&#45;&gt;0 -->
<g id="edge14" class="edge">
<title>56&#45;&gt;0</title>
<path fill="none" stroke="grey" stroke-width="2" d="M2039.89,-170.99C2048.29,-161.31 2057.58,-148.46 2062,-135 2070.73,-108.4 2080.4,-93.11 2062,-72 2017.05,-20.44 1801.79,-17.31 1714.2,-18.23"/>
<polygon fill="grey" stroke="grey" stroke-width="2" points="1714.12,-14.73 1704.17,-18.36 1714.21,-21.73 1714.12,-14.73"/>
</g>
<!-- 57&#45;&gt;0 -->
<g id="edge15" class="edge">
<title>57&#45;&gt;0</title>
<path fill="none" stroke="grey" stroke-width="2" d="M1459.63,-818.98C1520.13,-799.83 1597,-762.1 1597,-694 1597,-694 1597,-694 1597,-332 1597,-291.55 1586.76,-270.95 1616,-243 1686.36,-175.75 1769.09,-281.26 1832,-207 1842.34,-194.79 1842.31,-183.23 1832,-171 1770.96,-98.6 1683.04,-207.4 1622,-135 1603.95,-113.59 1611.05,-97.77 1622,-72 1626.73,-60.86 1635.08,-50.93 1643.87,-42.76"/>
<polygon fill="grey" stroke="grey" stroke-width="2" points="1646.35,-45.24 1651.62,-36.05 1641.77,-39.95 1646.35,-45.24"/>
</g>
<!-- 58&#45;&gt;0 -->
<g id="edge16" class="edge">
<title>58&#45;&gt;0</title>
<path fill="none" stroke="grey" stroke-width="2" d="M149,-458.95C149,-432.29 149,-379.11 149,-334 149,-334 149,-334 149,-188 149,-108.22 211.63,-100.88 286,-72 415.33,-21.79 1431.86,-19.01 1639.89,-18.97"/>
<polygon fill="grey" stroke="grey" stroke-width="2" points="1639.99,-22.47 1649.99,-18.97 1639.99,-15.47 1639.99,-22.47"/>
</g>
<!-- 59&#45;&gt;0 -->
<g id="edge17" class="edge">
<title>59&#45;&gt;0</title>
<path fill="none" stroke="grey" stroke-width="2" d="M263.46,-386.71C271.35,-360.18 285,-307.67 285,-262 285,-262 285,-262 285,-188 285,-131.5 290.19,-103.64 337,-72 392.42,-34.53 1428.8,-21.62 1639.72,-19.37"/>
<polygon fill="grey" stroke="grey" stroke-width="2" points="1640,-22.87 1649.97,-19.27 1639.93,-15.87 1640,-22.87"/>
</g>
<!-- 60&#45;&gt;0 -->
<g id="edge19" class="edge">
<title>60&#45;&gt;0</title>
<path fill="none" stroke="grey" stroke-width="2" d="M573.73,-907.24C420.24,-903.65 0,-883.13 0,-766 0,-766 0,-766 0,-188 0,-99.81 77.55,-100.55 161,-72 304.73,-22.83 1420.77,-19.24 1639.78,-19.01"/>
<polygon fill="grey" stroke="grey" stroke-width="2" points="1639.81,-22.51 1649.81,-19 1639.81,-15.51 1639.81,-22.51"/>
</g>
<!-- 61&#45;&gt;0 -->
<g id="edge20" class="edge">
<title>61&#45;&gt;0</title>
<path fill="none" stroke="grey" stroke-width="2" d="M390.23,-530.94C373.65,-453.84 310.78,-138.89 375,-72 419.97,-25.16 1431.87,-19.71 1639.84,-19.08"/>
<polygon fill="grey" stroke="grey" stroke-width="2" points="1639.96,-22.58 1649.95,-19.05 1639.94,-15.58 1639.96,-22.58"/>
</g>
</g>
</svg>
